<svg id="logo" xmlns="http://www.w3.org/2000/svg" width="116" height="56" viewBox="0 0 116 56">
  <path id="Path_1" data-name="Path 1" d="M416.678,276.893l5.053-6.749h-7.925l3.185-2.52a15.235,15.235,0,0,1-2.2.144h-3.537l-1.823,2.376H402.45l9.873-12.878h8.088c1.344,0,3.351.059,4.1,1.4.593,1.081.1,2.359-.569,3.448l6.127-4.851c7.634,0,15.271-.039,22.907-.039V252.8a3.917,3.917,0,0,0-4.443-4.428H425.842c-.218,0-.459,0-.713.014-5.843.043-9.579.506-13.36,5.546Q405.5,262.3,399.2,270.687c-2.4,3.187-2.39,5.651,0,8.852l6.6,8.8c3.362,4.48,6.68,4.5,12.253,4.5l16.577-.008h14.194a3.917,3.917,0,0,0,4.443-4.428v-4.427H419.953a4.423,4.423,0,0,1-3.274-7.082m56.776,1.166h-3.936l2.35-1.9,1.875-1.513h.731Zm-.346-5.583-1.239.979-8.255,6.52-2.8,2.21h3.491l2.309-1.789h6.007l-.549,1.789h3l2.638-9.71Zm12.179,0c-2.738,3.558-4.4,5.658-5.007,6.267a2.785,2.785,0,0,1-2.156.931l-1.313,1.707-.619.8h1.623a5.239,5.239,0,0,0,3.432-1.411,37.167,37.167,0,0,0,5.095-5.786h5.31l-5.539,7.2H489.1l7.473-9.71Zm-41.425,2.512h6.723l1.933-2.512h-9.71l-5.182,6.735-2.29,2.975h2.987Zm22.55-2.512h-2.988l-2.634,3.423H454.34l2.634-3.423h-2.987l-4.47,5.809-3,3.9H449.5l.015-.019,2.889-3.756h6.452l-2.905,3.775h2.987l4.674-6.073ZM435.132,275a5.3,5.3,0,0,0-.524.5l-5.152,6.695h2.987l5.183-6.735,2.289-2.975h-4.888l-10.636,7.185c-.137.109-.267.212-.39.312a.883.883,0,0,1-.371.217l.011-.068a4.812,4.812,0,0,1,.357-.339q.573-.516.647-.612l5.152-6.7H426.81l-7.473,9.71h4.889L434.875,275c.138-.109.286-.225.443-.347a.771.771,0,0,1,.318-.182l-.011.068c-.035.045-.2.2-.493.454" transform="translate(-381.723 -236.838)" fill="#0074d3"/>
  <path id="Path_2" data-name="Path 2" d="M423.424,258.923h-3.936l2.351-1.9,1.874-1.513h.731Zm-.347-5.581-1.238.978-8.256,6.521-2.8,2.211h3.491l2.31-1.791h6.007l-.548,1.791h3l2.637-9.71Zm23.136-.04h-2.988l-2.623,3.422H434.15l2.624-3.422h-2.987l-6.9,9-.544.712h2.988l2.894-3.776h6.451l-2.894,3.776h2.987l5.539-7.227Zm11.343,3.736q1.979-2.58,1.594-3.179-.434-.693-4.589-.693-4.184,0-5.7.789-1.4.731-4.058,4.2-.263.343-.5.659-2.139,2.893-1.875,3.578.182.473,1.875.652a25.544,25.544,0,0,0,2.6.108,15.451,15.451,0,0,0,5.678-.693,10.751,10.751,0,0,0,3.251-3.177H452.85a3.126,3.126,0,0,1-1.355,1.12,9.6,9.6,0,0,1-2.661.238q-2.2,0-2.329-.319t1.277-2.153a8.641,8.641,0,0,1,2.037-2.152,7.421,7.421,0,0,1,2.815-.332,4.958,4.958,0,0,1,2.294.286c.19.153.07.511-.361,1.072Zm-48.382,1.085h-4.319l1.771-2.308h4.318a1.7,1.7,0,0,1,.271.02.452.452,0,0,1,.379.232q.1.247-.379.884l-.015.019a3.135,3.135,0,0,1-1.035.924,2.131,2.131,0,0,1-.991.23m2.041,1.74a8.879,8.879,0,0,0,2.024-1.745q.464-.515.949-1.149,1.8-2.349,1.4-3.082-.3-.538-2.348-.581c-.118,0-.241,0-.368,0h-7.307l-7.444,9.712h2.988l1.822-2.378h4.319q.52,0,.985-.028a7.223,7.223,0,0,0,2.65-.569q.164-.079.331-.176m25.711-19.708v-4.428a4.252,4.252,0,0,0-1.108-3.32,3.726,3.726,0,0,0-2.407-1.076v-.04H377.7v.04a3.727,3.727,0,0,0-2.407,1.076,4.256,4.256,0,0,0-1.107,3.32v4.428h10.5l-7.09,9.561c-1.462,2-1.029,3.826.266,5.574l5.526,7.749c2.207,2.931,4.241,2.322,6.2.1l17.24-22.986Z" transform="translate(-374.182 -231.291)" fill="#323334"/>
  <rect id="Rectangle_2512" data-name="Rectangle 2512" width="116" height="56" transform="translate(0 0)" fill="none"/>
</svg>
