<svg id="Group_830" data-name="Group 830" xmlns="http://www.w3.org/2000/svg" width="143.624" height="29" viewBox="0 0 143.624 29">
  <path id="Path_348" data-name="Path 348" d="M232.7,26.48a20.638,20.638,0,0,1-.995,5.269c-1.658,6.191-2.543,7.48-6.706,7.7l-16.471.037c-2.579-3.1-6.412-7.665-6.78-8.107.921-.663,13.56-10.281,13.56-10.281h-7.149s-11.128,8.623-11.571,8.954H191.58L188.3,42.325h5.859s1.658-6.264,2.285-8.549c1.842,2.211,7.186,8.549,7.186,8.549h21.114c8.033,0,10.539-1.953,12.86-10.576a28.394,28.394,0,0,0,.995-5.269h-5.9Zm24.615-5.38h-29c-8.07,0-10.612,1.99-12.934,10.612a25.622,25.622,0,0,0-.995,5.269h5.9a18.7,18.7,0,0,1,.958-5.269c1.732-6.485,2.616-7.443,7.333-7.554h25.352c2.764,0,2.985.848,2.285,3.5-.848,3.169-2.285,3.722-6.08,3.722H241.1l-2.911,10.907h5.859s1.842-7,2.1-7.886h6.08c5.933,0,8.512-1.842,9.912-7C263.324,23.053,261.887,21.1,257.318,21.1Z" transform="translate(-118.914 -13.325)" fill="#f26522"/>
  <path id="Path_349" data-name="Path 349" d="M49.746,2.985,50.557,0H22.773S18.5,4.238,16.066,6.633C14.924,4.238,12.934,0,12.934,0H6.3s4.753,9.618,5.048,10.17C10.76,10.723,0,21.041,0,21.041H6.706s4.864-4.753,7.48-7.333c1.253,2.579,3.574,7.333,3.574,7.333h6.706s-5.233-10.318-5.49-10.907c.368-.368,4.422-4.311,7.407-7.186H49.746ZM75.724,0s-6.78,9.249-10.207,13.929C64.633,9.249,62.827,0,62.827,0h-7.3L50.7,18.056H33.753c.221-.848,1.437-5.38,1.658-6.227h6.706l.811-2.985H30.363l.037.074-3.28,12.16H55.752s1.732-6.412,3.058-11.423L61.1,21.078h5.159s4.717-6.449,8.365-11.46C73.771,12.75,73,15.734,73,15.734h4.827l1.29-.884L83.02,0Z" fill="#fff"/>
</svg>
