<svg xmlns="http://www.w3.org/2000/svg" width="360" height="174" viewBox="0 0 360 174">
  <g id="logo-watermark" opacity="0.14">
    <path id="Path_1" data-name="Path 1" d="M457.221,336.882,472.9,315.936H448.308l9.883-7.821a47.281,47.281,0,0,1-6.834.446H440.38l-5.658,7.375H413.065L443.7,275.971h25.1c4.17,0,10.4.182,12.733,4.355,1.84,3.355.312,7.32-1.767,10.7l19.014-15.055c23.692,0,47.392-.12,71.09-.12V262.114c0-2.865,0-6.872-3.437-10.307s-7.49-3.435-10.353-3.435H485.66c-.677,0-1.423,0-2.213.044-18.132.134-29.729,1.572-41.461,17.212q-19.468,25.959-39.007,52c-7.448,9.892-7.417,17.539,0,27.472l20.477,27.3c10.432,13.9,20.731,13.968,38.026,13.968l51.445-.025h44.051c2.863,0,6.92,0,10.355-3.437s3.435-7.44,3.435-10.3V358.862H467.383a13.725,13.725,0,0,1-10.162-21.98m176.2,3.62H621.208l7.293-5.887,5.82-4.7h2.267Zm-1.075-17.325-3.845,3.039-25.62,20.236-8.689,6.859h10.835l7.167-5.554h18.643l-1.7,5.554h9.313l8.188-30.134Zm37.8,0c-8.5,11.042-13.645,17.558-15.537,19.45a8.645,8.645,0,0,1-6.692,2.89l-4.076,5.3-1.922,2.5h5.036c3.345,0,6.551-1.079,10.65-4.38,4.018-3.238,9.11-9.246,15.812-17.958H689.9L672.708,353.31h9.271l23.191-30.134Zm-128.56,7.8H562.45l6-7.8H538.314l-16.083,20.9-7.106,9.232H524.4Zm69.983-7.8h-9.273L594.122,333.8H574.1l8.173-10.623H573L559.132,341.2l-9.322,12.107h9.275l.046-.059L568.1,341.6h20.022l-9.016,11.715h9.271l14.5-18.847Zm-97.079,7.817a16.445,16.445,0,0,0-1.626,1.54L496.876,353.31h9.271l16.084-20.9,7.1-9.233H514.165l-33.007,22.3c-.425.337-.83.658-1.209.968a2.741,2.741,0,0,1-1.15.673l.036-.21a14.952,14.952,0,0,1,1.107-1.052q1.779-1.6,2.008-1.9l15.988-20.779h-9.271L465.474,353.31h15.173l33.047-22.294q.644-.509,1.374-1.077a2.392,2.392,0,0,1,.987-.566l-.036.212c-.109.138-.618.612-1.53,1.408" transform="translate(-348.738 -212.574)" fill="#0074d3"/>
    <path id="Path_2" data-name="Path 2" d="M527,317.047H514.786l7.3-5.885,5.817-4.694h2.27Zm-1.077-17.321-3.843,3.035L496.459,323l-8.687,6.863h10.833l7.169-5.558h18.641l-1.7,5.558h9.313l8.184-30.136Zm71.8-.124h-9.273l-8.142,10.621H560.29l8.144-10.621h-9.271l-21.416,27.931-1.687,2.209h9.274l8.98-11.719h20.02l-8.98,11.719h9.271l17.191-22.428Zm35.2,11.593q6.142-8.006,4.948-9.864-1.345-2.15-14.24-2.15-12.986,0-17.683,2.448-4.354,2.27-12.595,13.02-.817,1.066-1.542,2.046-6.639,8.978-5.82,11.105.566,1.468,5.82,2.024a79.28,79.28,0,0,0,8.071.335q12.982,0,17.622-2.15,3.917-1.811,10.089-9.86h-9.271a9.7,9.7,0,0,1-4.206,3.477q-2.1.736-8.257.738-6.827,0-7.228-.991t3.963-6.681q4.328-5.646,6.323-6.679t8.737-1.031q6.07,0,7.119.887c.589.474.216,1.587-1.119,3.328Zm-150.15,3.368h-13.4l5.495-7.163h13.4a5.278,5.278,0,0,1,.84.061,1.4,1.4,0,0,1,1.176.719q.324.767-1.176,2.743l-.046.059a9.731,9.731,0,0,1-3.211,2.867,6.613,6.613,0,0,1-3.076.715m6.333,5.4a27.558,27.558,0,0,0,6.281-5.415q1.44-1.6,2.946-3.565,5.589-7.29,4.34-9.565-.931-1.669-7.287-1.8c-.367-.006-.748-.013-1.142-.013H471.573l-23.1,30.14h9.273l5.654-7.379h13.4q1.613,0,3.058-.088a22.418,22.418,0,0,0,8.226-1.766q.509-.246,1.027-.547M568.9,258.8V245.058c0-2.863,0-6.87-3.439-10.3A11.563,11.563,0,0,0,558,231.415v-.124H385.088v.124a11.567,11.567,0,0,0-7.471,3.339c-3.435,3.435-3.435,7.442-3.435,10.3V258.8h32.594l-22,29.673c-4.537,6.205-3.194,11.874.826,17.3q8.576,12.024,17.149,24.048c6.851,9.1,13.163,7.2,19.232.316l53.5-71.337Z" transform="translate(-374.182 -231.291)" fill="#0074d3"/>
    <rect id="Rectangle_2512" data-name="Rectangle 2512" width="360" height="174" transform="translate(0 0)" fill="none"/>
  </g>
</svg>
