<svg xmlns="http://www.w3.org/2000/svg" width="100" height="48" viewBox="0 0 100 48">
  <g id="logo" transform="translate(-100 -32)">
    <g id="Group_3306" data-name="Group 3306">
      <path id="Path_1" data-name="Path 1" d="M413.925,272.818l4.331-5.785h-6.793l2.73-2.16a13.058,13.058,0,0,1-1.888.123h-3.032l-1.563,2.037h-5.981L410.192,256h6.933c1.152,0,2.873.05,3.517,1.2a3,3,0,0,1-.488,2.955L425.405,256c6.543,0,13.089-.033,19.634-.033v-3.794a3.357,3.357,0,0,0-3.809-3.8H421.779c-.187,0-.393,0-.611.012-5.008.037-8.211.434-11.451,4.754q-5.377,7.17-10.773,14.361c-2.057,2.732-2.048,4.844,0,7.588l5.656,7.541c2.881,3.84,5.726,3.858,10.5,3.858l14.209-.007h12.167a3.357,3.357,0,0,0,3.809-3.8v-3.795H416.732a3.791,3.791,0,0,1-2.807-6.071m48.665,1h-3.373l2.014-1.626,1.607-1.3h.626Zm-.3-4.785-1.062.839-7.076,5.589-2.4,1.894h2.992l1.98-1.534h5.149l-.471,1.534h2.572l2.261-8.323Zm10.439,0c-2.347,3.05-3.769,4.849-4.291,5.372a2.388,2.388,0,0,1-1.848.8l-1.126,1.463-.531.689h1.391a4.491,4.491,0,0,0,2.941-1.21,31.858,31.858,0,0,0,4.367-4.96h4.552l-4.747,6.17H476l6.405-8.323Zm-35.507,2.153h5.763l1.657-2.153h-8.323l-4.442,5.773-1.963,2.55h2.561Zm19.329-2.153h-2.561l-2.257,2.934h-5.529l2.257-2.934H445.9l-3.831,4.979-2.575,3.344h2.562l.013-.016,2.477-3.219h5.53l-2.49,3.236h2.561l4.006-5.205Zm-26.812,2.159a4.545,4.545,0,0,0-.449.425l-4.416,5.738h2.561l4.442-5.773,1.962-2.55h-4.19l-9.116,6.159c-.117.093-.229.182-.334.267a.757.757,0,0,1-.318.186l.01-.058a4.128,4.128,0,0,1,.306-.291q.491-.443.554-.524l4.416-5.739h-2.561l-6.405,8.323h4.191l9.127-6.157.38-.3a.661.661,0,0,1,.273-.156l-.01.059c-.03.038-.171.169-.423.389" transform="translate(-283.963 -206.486)" fill="#29a5aa"/>
      <path id="Path_2" data-name="Path 2" d="M416.389,254.976h-3.374l2.015-1.625,1.607-1.3h.627Zm-.3-4.784-1.062.838-7.077,5.59-2.4,1.9h2.992l1.98-1.535h5.149l-.47,1.535h2.572l2.26-8.323Zm19.831-.034h-2.561l-2.249,2.933h-5.53l2.249-2.933h-2.561l-5.915,7.714-.466.61h2.561l2.48-3.237h5.529l-2.48,3.237h2.561l4.748-6.194Zm9.722,3.2q1.7-2.211,1.367-2.724-.372-.594-3.933-.594a11.89,11.89,0,0,0-4.884.676,13.879,13.879,0,0,0-3.479,3.6q-.226.294-.426.565-1.834,2.48-1.607,3.067.156.405,1.607.559a21.891,21.891,0,0,0,2.229.093,13.244,13.244,0,0,0,4.867-.594,9.215,9.215,0,0,0,2.786-2.723h-2.561a2.679,2.679,0,0,1-1.162.96,8.225,8.225,0,0,1-2.281.2q-1.886,0-2-.274t1.095-1.845a7.407,7.407,0,0,1,1.746-1.845,6.361,6.361,0,0,1,2.413-.285,4.25,4.25,0,0,1,1.966.245c.163.131.06.438-.309.919Zm-41.47.93h-3.7l1.518-1.978h3.7a1.456,1.456,0,0,1,.232.017.388.388,0,0,1,.325.2q.089.212-.325.758l-.013.016a2.687,2.687,0,0,1-.887.792,1.826,1.826,0,0,1-.85.2m1.749,1.491a7.611,7.611,0,0,0,1.735-1.5q.4-.441.814-.985,1.544-2.013,1.2-2.642-.257-.461-2.013-.5c-.1,0-.207,0-.315,0H401.08l-6.381,8.324h2.561l1.562-2.038h3.7q.445,0,.845-.024a6.191,6.191,0,0,0,2.272-.488c.094-.045.188-.1.284-.151m22.038-16.893v-3.8a3.645,3.645,0,0,0-.95-2.846,3.194,3.194,0,0,0-2.063-.922v-.034H377.194v.034a3.2,3.2,0,0,0-2.063.922,3.648,3.648,0,0,0-.949,2.846v3.8h9l-6.077,8.2c-1.253,1.714-.882,3.28.228,4.778l4.736,6.642c1.892,2.512,3.635,1.99,5.312.087l14.777-19.7Z" transform="translate(-274.182 -199.291)" fill="#323334"/>
    </g>
    <rect id="Rectangle_2512" data-name="Rectangle 2512" width="100" height="48" transform="translate(100 32)" fill="none"/>
  </g>
</svg>
